<?xml version="1.0" encoding="UTF-8"?>
<svg version="1.1" viewBox="0 0 20 20" xmlns="http://www.w3.org/2000/svg">
	<title>camera</title>
	<path d="m7.8008 2c-0.51494 0.0020507-1.0101 0.20319-1.3809 0.56055l-0.66992 0.63867c-0.37076 0.35736-0.86592 0.5585-1.3809 0.56055h-2.3691c-1.0335-0.062965-1.9252 0.71732-2 1.75v10.541c0.069566 1.0367 0.96289 1.8226 2 1.7598h16c1.0371 0.0628 1.9304-0.72309 2-1.7598v-10.541c-0.069566-1.0367-0.96289-1.8226-2-1.7598h-2.3691c-0.51494-0.0020507-1.0101-0.20319-1.3809-0.56055l-0.66992-0.63867c-0.37233-0.35371-0.86731-0.55142-1.3809-0.55078h-4.3984zm2.1992 2.5c1.0755 8.628e-4 2.1174 0.29668 3.0293 0.83203l-1.4844 1.4844c-0.48507-0.20409-1.0085-0.3158-1.5449-0.31641-2.2091 0-4 1.7909-4 4h3l-4 4-4-4h3c0-3.3137 2.6863-6 6-6zm5 2 4 4h-3c0 3.3137-2.6863 6-6 6-1.0755-8.63e-4 -2.1174-0.29668-3.0293-0.83203l1.4844-1.4844c0.48507 0.20409 1.0085 0.3158 1.5449 0.31641 2.2091 0 4-1.7909 4-4h-3l4-4z"/>
</svg>
